<?xml version="1.0" encoding="UTF-8" standalone="no"?>
<!-- Created with Inkscape (http://www.inkscape.org/) -->

<svg
   xmlns:dc="http://purl.org/dc/elements/1.1/"
   xmlns:cc="http://creativecommons.org/ns#"
   xmlns:rdf="http://www.w3.org/1999/02/22-rdf-syntax-ns#"
   xmlns:svg="http://www.w3.org/2000/svg"
   xmlns="http://www.w3.org/2000/svg"
   xmlns:sodipodi="http://sodipodi.sourceforge.net/DTD/sodipodi-0.dtd"
   xmlns:inkscape="http://www.inkscape.org/namespaces/inkscape"
   width="744.09448819"
   height="1052.3622047"
   id="svg4143"
   version="1.1"
   inkscape:version="0.48.5 r10040"
   sodipodi:docname="macau.svg">
  <defs
     id="defs4145" />
  <sodipodi:namedview
     id="base"
     pagecolor="#ffffff"
     bordercolor="#666666"
     borderopacity="1.0"
     inkscape:pageopacity="0.0"
     inkscape:pageshadow="2"
     inkscape:zoom="0.49497475"
     inkscape:cx="304.53548"
     inkscape:cy="846.16333"
     inkscape:document-units="px"
     inkscape:current-layer="layer1"
     showgrid="false"
     inkscape:window-width="1474"
     inkscape:window-height="828"
     inkscape:window-x="52"
     inkscape:window-y="52"
     inkscape:window-maximized="0" />
  <metadata
     id="metadata4148">
    <rdf:RDF>
      <cc:Work
         rdf:about="">
        <dc:format>image/svg+xml</dc:format>
        <dc:type
           rdf:resource="http://purl.org/dc/dcmitype/StillImage" />
        <dc:title></dc:title>
      </cc:Work>
    </rdf:RDF>
  </metadata>
  <g
     inkscape:label="Layer 1"
     inkscape:groupmode="layer"
     id="layer1">
    <g
       transform="matrix(1.92015,0,0,1.92015,-1053.9888,-263.62031)"
       id="g3244"
       style="fill:#f6e1b9;display:inline" />
    <path
       inkscape:connector-curvature="0"
       sodipodi:nodetypes="cccccsccccccccc"
       id="path7629"
       d="m 73.37821,78.408081 4.333099,8.975683 -11.451753,3.095064 -2.476047,-2.785555 -5.88062,2.476047 c -1.134865,10.27416 -2.967088,28.55646 -3.623412,30.82243 -0.599457,2.0696 -4.733253,13.29109 -7.209299,19.93663 l 4.733228,11.68351 15.694184,-0.85078 20.427437,9.90421 24.141503,-15.47531 44.25944,-46.735469 -43.94991,-42.092915 -17.332403,12.689765 -21.665447,8.35669 z"
       style="fill:#f6e1b9;fill-opacity:1;fill-rule:evenodd;stroke:#000000;stroke-width:1.22558343px;stroke-linecap:butt;stroke-linejoin:round;stroke-opacity:1;display:inline" />
    <path
       inkscape:connector-curvature="0"
       id="path7108"
       d="m 145.49027,2.8886815 -7.1237,2.489454 C 128.1286,8.1030987 116.09808,3.994845 104.01191,4.4206611 l -6.817305,5.2853292 -4.634224,8.3492877 c -1.314366,5.185271 -3.546203,9.448587 -6.510913,12.983512 l -5.859833,0 -11.145137,-3.408641 c -8.45866,-0.823005 -16.232731,-0.498028 -23.82228,0.651078 -5.125414,0.77604 -8.477458,3.906033 -12.715427,5.859834 l -0.612793,4.327828 10.225975,32.209879 33.78012,-11.528157 -1.302183,-4.44274 -0.306395,-2.489454 2.183082,-3.523552 4.634225,0 6.817309,17.962444 -32.822646,10.494059 c -0.915339,0.292645 -1.615883,1.485751 0,3.10227 1.557521,1.558108 3.115041,3.521493 4.672537,4.672537 l 40.520848,-12.715428 0.3064,-3.715062 9.30676,-4.32783 c 4.40314,7.236115 3.54934,5.719945 12.21755,14.17081 4.94461,4.820611 14.71715,13.423741 21.2486,19.132045 6.53146,5.7083 -3.52825,17.05708 -0.16742,19.92796 0,0 14.64033,1.13329 15.50582,2.45663 1.2664,1.93632 9.92855,-2.57541 10.10011,-0.26811 0.17231,2.31652 -12.69418,14.72976 -12.48564,17.04329 0.0978,1.08288 4.86406,6.5109 4.86406,6.5109 l 10.80044,0.91919 c 0.29262,-1.05993 3.78527,-1.85438 7.8131,-2.45116 l -3.10227,-1.83837 -1.34513,-3.94486 c -4.04193,-2.43314 -0.16987,-7.85017 -1.71883,-10.30256 0,0 -2.0394,-2.78317 -2.60436,-4.13634 -1.01364,-2.42788 -1.99158,-8.54079 -1.99158,-8.54079 -0.21693,-7.42114 7.12604,-11.80353 8.31101,-12.25584 0.91592,-0.34961 4.76676,-2.29314 7.4301,-1.80006 2.26039,0.418461 4.50303,0.107361 7.88969,-0.1532 3.68986,-0.28387 6.38675,-3.367683 11.39135,-5.695679 2.95628,-1.375203 5.33206,-2.213991 7.22767,0.202467 l 8.55172,28.894212 -28.70272,8.96206 c -0.96961,0.33432 -1.80805,0.47195 -3.90655,3.06398 l -4.78744,7.16201 c 4.08744,-0.48757 8.04163,-0.75618 9.53658,-0.76599 -0.43427,-1.07724 7.58614,-8.25417 9.84295,-10.03448 l 19.12787,-8.30003 -9.18093,-31.110135 2.23387,-2.095577 -2.26123,-36.701786 c -0.16521,-2.807567 -5.47421,-10.074003 -6.74071,-12.255835 -1.26648,-2.181858 -6.97482,-6.531405 -8.0046,-6.817309 -15.62821,-4.339129 -24.90895,-8.343845 -37.26539,-14.477204 -4.48504,-2.226248 -6.636,-3.021872 -8.34929,-4.940646 0,0 -3.22009,0.92686 -4.36614,0.306396 -0.84068,-0.455108 -1.53197,-2.79585 -1.53197,-2.79585 l 0,-8.3492875 z M 191.98583,140.46043 c 0.0532,0.13235 0.23924,0.18825 0.57448,0.11495 0.30334,-0.0664 -0.0122,-0.11863 -0.57448,-0.11495 z M 75.900093,59.150611 l 0,0 z"
       style="fill:#f6e1b9;fill-opacity:1;fill-rule:evenodd;stroke:#000000;stroke-width:1.22558343px;stroke-linecap:round;stroke-linejoin:round;stroke-opacity:1;display:inline"
       sodipodi:nodetypes="ccccccccscccccccccssccccsscsssccccccscsssscccccccccccssscscccsccc" />
    <path
       inkscape:connector-curvature="0"
       sodipodi:nodetypes="ccsscccccccccsccccccssccssscssscccccsccsssssccccsccccccccccccccccccccccssscsssccccccccccscccsssc"
       id="path4017"
       d="m 147.62427,110.6258 -48.257342,37.26539 c -0.04437,0.10833 -3.114307,-2.74598 -3.217157,-2.87245 -0.682576,-0.83948 -6.281091,4.75288 -7.31519,4.97892 -1.632157,0.35677 -8.411497,5.09223 -7.851405,4.86403 -6.176745,-4.82063 -18.453881,-12.21292 -18.61355,-12.56223 l -7.123703,-1.53198 -1.53198,1.95329 -2.183057,-0.19144 -1.302183,1.07239 3.217156,30.0651 -11.987751,25.62234 10.723856,19.03486 c 1.313138,1.36831 5.028569,-1.67054 5.017245,1.76178 -0.01225,3.15862 -7.064337,11.43474 -4.787448,12.02604 l 5.438526,2.41286 c -0.437704,4.01233 0.507613,10.07181 -1.302181,12.02603 l -3.715039,3.52355 c -0.835896,1.71204 -3.01822,1.93999 -1.761776,6.77903 -4.99717,3.3864 -9.977941,4.4899 -14.97511,0.88087 -2.994664,-1.6925 -6.699015,-1.8385 -9.154349,-1.45693 -3.141978,0.48827 -7.77287,-2.16622 -8.854816,-2.7321 -7.777602,-4.06785 5.433355,-3.78386 5.441689,-3.84318 -2.2e-4,0.051 -19.0803004,-8.67401 -20.1019713,-8.97277 0.047798,7.12864 18.2062623,22.80657 18.3454403,22.3669 0.02476,-0.0777 -0.5559,1.80282 -0.536193,1.80009 0.03285,-0.005 0.82146,0.37204 0.804302,0.34468 -0.05368,-0.0855 1.189943,-2.51401 3.56184,-0.84258 4.155929,1.69255 10.795429,1.18506 14.97511,1.37878 8.822877,0.4089 17.87842,1.08593 31.405576,-1.03407 0,0 11.765283,-3.33609 16.851772,-4.59594 5.125636,-1.26956 17.196449,-3.82995 17.196449,-3.82995 l -3.60015,-15.5113 8.19609,-2.10647 3.06397,16.20068 14.66871,-2.94906 c 4.9214,-0.99164 8.36475,-5.26125 12.14092,-9.53657 5.56834,-6.30434 6.67684,-16.32684 8.84719,-25.27767 l 24.74147,-9.42166 c 0,0 4.69452,7.93081 5.36192,10.30257 0.66738,2.37174 -0.78758,3.72652 0.34468,4.82573 1.13227,1.0992 5.02547,0.64362 5.66834,0.19144 0.64287,-0.45213 5.08862,-3.52079 5.13213,-3.52356 0.0355,-0.002 -1.66905,-2.30047 -1.64687,-2.18305 0.005,0.022 3.49527,-5.39536 3.60015,-6.31943 l 4.09803,0.8809 -3.29375,-4.17466 c -1.66969,-2.29591 -2.31557,-4.31126 -2.83416,-6.3194 0,0 2.63726,-1.18093 2.45116,-2.14478 -0.20172,-1.04436 -3.33206,-1.14898 -3.33204,-1.14898 l 0,-2.64268 3.94484,0 c 0.55908,-2.1643 1.53077,-4.08677 3.25546,-5.66831 l -4.59593,-1.99158 c -1.12832,-5.08616 -2.89012,-9.76815 -5.47684,-13.9793 l -3.06396,-2.52776 2.64268,-2.29797 -3.29376,-5.24705 c -0.32205,-3.2312 -0.22231,-6.5119 2.94905,-11.48984 l -5.36193,-3.71504 3.06396,-3.52355 -1.07239,-1.64689 2.41288,-1.72347 15.97087,7.85139 6.54923,-11.68133 1.34047,-5.59173 c 0.43354,-2.0583 1.83928,-4.95236 4.02146,-5.55344 l 4.78742,-1.37878 c 5.01815,-0.84745 3.21014,-2.17166 2.79588,-3.40864 l -0.30641,0.53619 -29.52891,9.53656 c -1.267,0.99949 -2.35978,2.28319 -3.33204,3.63847 -0.97225,1.35525 -1.82817,2.78092 -2.68096,4.09804 -0.33216,0.51298 -0.93972,0.66524 -1.57028,0.61278 -0.63057,-0.0524 -1.30151,-0.30963 -1.72348,-0.61278 0,0 -9.32095,-5.42789 -12.06435,-9.15357 -0.64632,-0.87775 -1.51095,-2.21089 -1.60857,-3.29377 -0.10446,-1.15677 0.21594,-2.49227 0.53618,-3.82994 0.26932,-1.12445 0.54564,-2.5056 0.57451,-3.52356 l -21.17963,-9.26847 z m -75.986168,80.7736 19.494449,10.53237 0.880876,4.13635 c 3.511051,-1.51768 6.194343,0.84771 8.540793,3.94483 -0.820476,-4.19978 -1.24938,-8.1719 1.95326,-10.07276 l 2.64268,-1.07238 14.66869,36.7675 -20.60512,5.47682 c -16.274695,3.42001 -26.458606,-7.04019 -30.639587,-14.89849 -8.223004,-15.45539 -2.868159,-25.8969 0.8809,-31.52049 l 2.183059,-3.29375 z m 82.994988,27.61394 c -0.96647,0 -1.76177,0.74891 -1.76177,1.68517 0,0.93625 0.7953,1.68518 1.76177,1.68518 0.96644,0 1.72346,-0.74893 1.72346,-1.68518 0,-0.93626 -0.75702,-1.68517 -1.72346,-1.68517 z"
       style="fill:#f6e1b9;fill-opacity:1;fill-rule:evenodd;stroke:#000000;stroke-width:1.22558343px;stroke-linecap:round;stroke-linejoin:round;stroke-opacity:1;display:inline" />
    <path
       inkscape:connector-curvature="0"
       id="path7781"
       d="m 331.43183,473.0311 c -2.8673,0 -3.76582,0.27161 -4.48105,1.26386 -0.49077,0.68094 -18.16751,13.59633 -18.57524,13.59633 -0.40773,0 -4.5422,3.71508 -4.94064,3.71503 -1.23627,0 -2.48947,1.704 -2.48947,3.37037 0,0.87548 0.27235,1.6086 0.6128,1.60858 0.34046,0 0.61279,0.43993 0.61279,0.99578 0,0.55587 0.62239,1.52193 1.34048,2.14477 1.17494,1.01903 1.20134,1.21154 0.34471,2.06817 -0.5236,0.5236 -1.96296,0.95748 -3.17889,0.9575 -1.79807,0 -2.18305,0.25696 -2.18305,1.26387 0,0.96294 -0.43234,1.22558 -1.87669,1.22558 -1.02137,0 -1.83835,0.27235 -1.83837,0.6128 0,0.34046 -0.46079,0.61278 -0.99578,0.61278 -1.25105,0 -13.72501,-2.05937 -13.78782,-2.10645 -0.12893,-0.0968 -13.86441,-12.29217 -13.86441,-12.02604 0,0.24242 -3.54417,1.83772 -8.73229,4.05975 l -1.49365,11.14513 c -3.49761,4.64261 -7.79987,10.524 -17.00498,15.16661 0,0 -14.4578,5.94931 -16.73689,11.45155 -1.31854,3.18325 2.48947,8.65566 2.48947,8.65569 1.18659,4.74628 -9.8503,8.96004 -20.75831,8.65567 l -18.84335,-1.83837 0.19144,-20.33704 c -30.83941,18.83827 -57.9088,45.26996 -57.90882,45.27 l -1.53198,44.58059 c 0.0267,11.06709 2.70072,-3.74905 2.87248,-4.17463 0.42588,-1.05544 3.77433,-0.97478 4.86401,0.11496 1.17101,1.17097 1.12434,2.79588 -0.0765,2.79585 -1.2383,0 -3.98314,2.78313 -3.98314,4.02146 0,0.52617 -0.27232,0.95745 -0.6128,0.95747 -0.34043,0 -0.61278,0.54467 -0.61278,1.22558 0,1.0317 -0.42609,1.22561 -2.48945,1.22559 -1.36185,0 -2.45117,0.99149 -2.45117,0.6511 0,-0.35998 -2.95025,1.30559 -3.48527,1.83837 -1.55943,1.55289 -2.71925,1.57978 -2.71925,8.00458 l 0,6.24284 2.48945,0 c 2.06338,0 2.45117,0.19388 2.45117,1.22558 0,0.68091 1.53622,3.71505 1.87669,3.71503 0.34046,0 0.61279,1.39998 0.61279,3.10227 0,1.70229 -0.27233,3.10225 -0.61279,3.10225 -0.3439,0 -1.024,1.69307 -0.61279,3.71506 0.81972,4.03069 -3.93621,17.38047 -6.89391,16.12407 l -3.14055,3.06396 1.91497,1.80008 c 1.33937,1.25115 1.91497,2.37009 1.91497,3.71504 0,1.05501 1.22559,2.34631 1.22559,2.87248 0,1.73224 2.88404,3.98313 5.09382,3.98315 1.34792,0 2.36464,0.41471 2.94906,1.22558 0.49225,0.68293 1.61587,1.26389 2.48945,1.26387 0.87363,0 1.99729,0.54264 2.48949,1.22559 0.4908,0.68093 1.52663,1.22558 2.33625,1.22558 0.83743,0 2.23033,0.82026 3.21717,1.87669 1.06042,1.13518 2.35592,1.83837 3.33206,1.83837 1.22103,0 1.70716,0.39944 2.02986,1.68518 0.23213,0.92483 0.70221,2.02714 1.07239,2.45116 0.47197,0.54071 3.14102,0.78781 8.92378,0.80428 9.1425,0.026 10.03447,-0.2962 10.03447,-3.67675 0,-2.32113 2.38901,-4.97893 4.48103,-4.97893 0.79148,0 1.84551,-0.5447 2.33628,-1.22558 0.49078,-0.68089 1.45391,-1.22387 2.14477,-1.22559 1.05493,-0.002 1.2789,-0.49023 1.41707,-2.87245 0.1706,-2.93917 1.19293,-4.55763 2.87247,-4.55766 0.535,0 1.74469,-1.41571 2.68096,-1.64686 0.93628,-0.23114 2.16863,-0.9438 2.71926,-1.57029 0.81794,-0.93061 1.89998,-1.11067 6.01303,-1.11067 4.62156,0 5.05553,0.0889 5.05553,1.22558 0,0.68092 0.27233,1.22556 0.6128,1.22559 0.90043,0 0.7618,3.57565 -0.1532,3.94483 -0.42557,0.17184 3.25544,0.58731 3.25544,2.25968 0,1.23804 0.3002,1.83838 0.91918,1.83838 0.51071,0 0.91919,-0.27237 0.91919,-0.61279 0,-0.34047 6.13919,-0.89749 6.81731,-1.83837 0.67814,-0.94083 1.58167,-1.2639 3.82995,-1.2639 1.62714,0 2.98736,0.31067 2.98736,0.6511 0,1.1442 3.40849,0.62444 4.32785,-0.6511 0.92162,-1.27868 3.10225,-1.70714 3.10225,-0.6128 0,0.34048 4.25973,1.8767 4.94064,1.8767 0.68091,0 1.22559,-0.27233 1.22559,-0.6128 0,-0.89713 2.31375,-0.76316 2.64264,0.1532 0.18851,0.52485 0.6914,0.29363 1.53199,-0.65109 1.26326,-1.4198 3.25548,-1.88604 3.25548,-0.76601 0,0.34048 0.53474,0.6128 1.18726,0.6128 0.65255,0 1.32196,0.37871 1.49369,0.8043 0.24978,0.619 0.34393,0.619 0.383,0 0.0748,-1.18662 1.53041,-0.92416 2.52777,0.4596 0.49079,0.68091 1.38581,1.22556 1.99156,1.22558 0.60577,0 1.07239,0.2723 1.07239,0.61279 0,0.34044 0.71912,0.61279 1.57027,0.61279 0.85116,0 1.53198,-0.27237 1.53198,-0.61279 0,-0.35182 1.82801,-0.61281 4.21294,-0.61279 3.48634,0 4.35253,-0.19708 5.09384,-1.22558 0.4908,-0.68091 1.38583,-1.2639 1.99158,-1.2639 0.60576,0 3.56184,-1.49789 3.56184,-1.83838 0,-0.34047 0.97711,-0.61277 2.18308,-0.6128 1.20598,0 2.63709,-0.34039 3.14056,-0.76598 3.28061,-2.77286 4.59593,-4.15351 4.59593,-4.78742 0,-1.0382 1.57765,-2.48949 2.71926,-2.48949 0.53501,0 0.9958,-0.31063 0.99578,-0.65107 0,-0.34044 -0.27232,-0.61282 -0.61279,-0.61279 -0.89894,0 -0.76242,-3.51757 0.1532,-3.94486 0.61902,-0.28884 0.61899,-0.4388 0,-0.72768 -0.91562,-0.42729 -1.05214,-3.98312 -0.1532,-3.98314 0.34047,0 0.61281,-0.27233 0.61279,-0.61279 0,-0.34047 -0.58296,-0.61279 -1.26387,-0.61279 -0.82535,0 -1.22558,-0.43857 -1.22558,-1.2639 0,-0.68091 -1.22559,-1.77027 -1.22559,-2.45118 0,-0.68091 -0.27231,-1.26392 -0.61278,-1.26387 -0.34048,0 -0.65111,0.31062 -0.65111,0.65109 0,0.34046 -1.08932,0.61278 -2.45116,0.61278 -1.36182,0 -2.48946,-0.27235 -2.48946,-0.61278 0,-0.35766 -1.95184,-0.65114 -4.63425,-0.65109 -2.68238,0 -4.63423,0.29341 -4.63423,0.65109 0,0.34046 -0.71913,0.61278 -1.57029,0.61278 -0.85115,0 -1.53198,-0.27235 -1.53198,-0.61278 0,-0.34045 -0.54468,-0.65114 -1.22559,-0.65109 -0.96289,0 -1.26387,-0.39402 -1.26387,-1.83837 0,-1.02135 -1.14217,-8.4878 -1.22558,-8.65568 -2.38292,-4.7968 15.07312,-41.31934 17.31137,-40.25277 0.75774,0.36108 1.2639,-1.26365 1.26388,-1.72346 0,-1.1336 1.52617,-2.60434 2.71927,-2.60437 0.56005,0 2.22137,-3.30645 2.22137,-4.32785 0,-1.65069 0.226,-1.87666 1.87666,-1.87666 1.02138,0 6.77903,-2.76181 6.77903,-3.10227 0,-0.93944 3.0931,-0.73682 4.09803,0.2681 0.48636,0.48637 0.8809,1.61403 0.8809,2.48946 0,1.17908 0.3227,1.7691 1.22558,1.60858 1.45913,-0.25939 7.05676,3.56869 7.16199,3.71506 0.31775,0.44194 1.80349,0.81697 2.75756,1.83837 1.71645,1.83744 1.78112,1.87669 8.2727,1.87667 3.96118,0 9.03867,1.49788 9.03867,1.83837 0,1.25343 1.90198,0.0485 3.71506,-1.83837 1.81308,-1.88706 2.83299,-2.48943 3.37035,-2.48946 0.53738,0 0.9575,-0.27229 0.95748,-0.61279 0,-0.34047 0.50496,-0.61277 1.11069,-0.61279 0.60577,0 1.48418,-0.55995 1.99158,-1.2639 0.50739,-0.70395 1.62613,-1.2256 2.60436,-1.22558 0.97825,0 1.7235,-0.2723 1.72348,-0.61279 0,-0.34044 0.1228,-0.61279 1.57028,-0.61279 1.4474,0 4.63423,-2.60613 4.63423,-4.63423 0,-0.86663 0.27235,-1.57024 0.61279,-1.57028 0.34047,0 0.61279,-0.77729 0.61279,-1.72347 0,-1.01027 0.4986,-2.08036 1.22558,-2.60437 0.68094,-0.49077 1.2639,-1.38582 1.2639,-1.99158 0,-0.60575 0.42008,-1.11067 0.95747,-1.11069 0.53739,0 10.18766,-7.85814 10.18766,-8.96208 0,-0.70341 0.63056,-0.9575 2.45118,-0.95748 1.8383,0 2.48948,0.27356 2.48948,0.9958 0,0.53496 0.39452,1.35198 0.88087,1.83837 1.00892,1.00887 3.44695,1.19936 3.44695,0.26808 0,-0.34044 0.40852,-0.61276 0.91919,-0.61278 0.5107,0 0.9575,0.27232 0.9575,0.61278 0,0.34047 0.40853,0.6128 0.91919,0.6128 0.5107,0 0.91919,-0.27235 0.91919,-0.6128 0,-0.34044 0.68083,-0.61276 1.53197,-0.61278 1.61561,0 2.20779,1.50179 0.80428,2.06816 -0.42557,0.17183 -0.1532,0.31782 0.61279,0.3447 0.76604,0.0267 1.37881,0.34896 1.37878,0.68939 0,0.34045 0.85534,0.61282 1.87668,0.6128 1.02138,0 1.83838,0.27237 1.83838,0.61279 0,1.17962 4.00624,0.68365 4.94063,-0.61279 0.49077,-0.68093 1.42413,-1.22558 2.02988,-1.22558 0.68871,0 1.07239,-0.48975 1.07239,-1.26389 0,-0.68091 0.27235,-1.22556 0.61279,-1.22558 0.34046,0 0.65108,-0.40854 0.65108,-0.91919 0,-0.51583 -0.57607,-0.91919 -1.26387,-0.91919 -0.68777,0 -1.22558,-0.44163 -1.22558,-0.95748 0,-0.51584 0.53781,-0.91916 1.22558,-0.91919 0.68091,0 7.55283,-4.3278 8.23437,-5.09384 0.84061,-0.94473 1.30529,-1.13763 1.49369,-0.61279 0.15271,0.4256 1.11347,0.76599 2.10647,0.76599 1.3928,0 1.80008,-0.30885 1.80008,-1.26387 0,-0.68091 0.33513,-1.22556 0.72768,-1.22558 0.39258,0 0.0819,-0.51323 -0.65108,-1.14899 -1.3527,-1.17321 -1.82152,-3.79167 -0.68939,-3.79167 0.34047,0 0.61279,-1.14158 0.61279,-2.52776 0,-2.46039 -1.06902,-4.28951 -2.48947,-4.28954 -1.02378,0 -2.45117,-1.58581 -2.45117,-2.71925 0,-0.53502 -4.29802,-9.77349 -4.97893,-10.26426 -0.71121,-0.51263 -1.22557,-1.60739 -1.22559,-2.56609 0,-0.91781 -0.34039,-1.83126 -0.76599,-2.02986 -0.61899,-0.28884 -0.61897,-0.43882 0,-0.7277 1.03609,-0.48349 0.97783,-4.4607 -0.0765,-5.51512 -0.46175,-0.46177 -1.86167,-1.03116 -3.10223,-1.26387 -2.20118,-0.41295 -3.00286,-1.75015 -1.45539,-2.37456 0.42557,-0.17183 0.11497,-0.31782 -0.6511,-0.34472 -0.76603,-0.0269 -1.37877,-0.36289 -1.37879,-0.72767 0,-0.36476 -0.40851,-0.24266 -0.91919,0.26808 -0.51067,0.5107 -0.91918,1.38001 -0.91918,1.91498 0,0.53501 -0.27005,0.95749 -0.57449,0.95749 -0.83175,0 -4.40442,3.51471 -4.40445,4.32784 0,0.72536 -2.74959,3.75334 -3.40864,3.75334 -0.20123,0 -1.04682,-0.7404 -1.91497,-1.60858 l -1.60858,-1.57026 1.30219,-1.1107 c 1.64444,-1.42623 1.6815,-3.14055 0.0765,-3.14055 -0.66544,0 -1.90642,-0.71913 -2.75756,-1.57028 -0.85115,-0.85113 -2.09949,-1.53197 -2.79587,-1.53197 -0.6964,0 -1.26387,-0.27235 -1.26387,-0.61279 0,-0.34047 -0.27233,-0.65108 -0.6128,-0.6511 -0.34046,0 -0.61278,0.50496 -0.61278,1.11069 0,0.60576 -0.58297,1.50078 -1.2639,1.99158 -0.68088,0.49079 -1.2256,1.24962 -1.2256,1.68517 0,0.4355 -0.2723,0.8043 -0.61278,0.80428 -0.34045,0 -0.6128,0.42248 -0.6128,0.9575 0,0.53499 -0.44113,1.39863 -0.95748,1.91497 -0.83903,0.83905 -1.12336,0.75094 -2.71927,-0.9575 -0.98208,-1.05135 -2.1293,-1.91495 -2.52776,-1.91497 -0.39839,0 -1.09569,-0.34039 -1.57027,-0.76599 -2.28309,-2.04742 -2.86068,-2.33626 -4.90233,-2.33626 -1.20597,0 -2.18308,0.27232 -2.18308,0.6128 0,0.34046 -0.85529,0.61278 -1.87666,0.61278 -1.44435,0 -1.83838,-0.26269 -1.83838,-1.22558 0,-0.68093 -0.27232,-1.22558 -0.61278,-1.22558 -0.90186,0 -0.76124,-4.18865 0.15319,-4.55765 0.42557,-0.17183 0.1532,-0.31782 -0.61279,-0.34468 -0.86007,-0.0301 -1.41707,0.29479 -1.41709,0.88087 0,0.52205 -0.96452,1.92203 -2.14478,3.10227 -1.63875,1.63878 -2.65756,2.14477 -4.32783,2.14477 -1.20296,0 -2.18308,-0.27232 -2.18308,-0.61278 0,-0.34045 -1.39996,-0.6128 -3.10225,-0.6128 l -3.10227,0 0,-2.79588 c 0,-1.53202 0.27233,-2.79584 0.61279,-2.79584 0.37182,0 0.65111,-2.48799 0.65111,-6.24284 0,-6.14769 -0.0502,-6.26028 -1.87669,-7.96629 -1.98216,-1.85161 -2.51399,-4.36614 -0.91919,-4.36614 0.52286,0 1.58245,-0.54136 2.33629,-1.22558 5.32598,-4.83409 6.62581,-6.16762 6.62579,-6.77899 0,-0.38172 2.21698,-2.89719 4.94064,-5.59173 3.60734,-3.56873 4.97894,-5.32607 4.97894,-6.47263 0,-0.8657 3.98739,-9.00036 4.32783,-9.00036 0.34047,0 0.61279,-0.27232 0.61279,-0.61279 0,-0.34125 -1.58956,-0.65108 -3.56184,-0.6511 z"
       style="fill:#f6e1b9;fill-opacity:1;stroke:#000000;stroke-width:1.22558343;stroke-linejoin:round;stroke-miterlimit:4;stroke-opacity:1;stroke-dasharray:none;display:inline" />
    <path
       inkscape:connector-curvature="0"
       id="path7645"
       d="m 233.65324,377.09087 -116.43043,1.11071 -26.503251,32.17156 c 6.559594,6.58074 12.460931,14.62256 17.962471,24.05208 1.0026,1.71836 3.16544,0.85177 4.13635,0 1.14398,-1.00364 -0.29041,-2.99057 -1.07238,-4.36614 -3.46521,-4.43211 -6.68172,-8.07736 -8.88549,-11.60477 -0.51215,-0.81977 0.60775,-2.67888 2.52776,-2.64265 l 11.60474,0.22968 0.42131,22.32858 -4.36614,0 c 3.93826,6.30916 8.87445,16.0479 16.62197,24.09039 l 0.22967,99.57865 c 0,-2e-5 -1.96797,1.66138 -2.41288,2.83417 -1.00159,2.6404 -0.19144,9.61316 -0.19144,9.61316 l 48.14245,-12.67713 4.59593,-9.19186 c 3.79319,1.85975 10.8024,-0.65165 27.07057,-0.72457 -0.0417,-0.10021 0.21302,-23.87721 0.22967,-24.09039 0,0 0.47064,-0.78474 0.56204,-1.16065 0.10393,-0.42733 0.0325,-1.02572 0.0382,-1.4655 0.0615,-4.73649 -0.002,-15.78969 -0.002,-15.78969 0.0605,-3.63625 4.80086,-4.63635 6.83287,-4.48725 l 41.14084,2.90765 0.0382,-0.0382 c 6.6215,-0.12967 14.16144,0.90674 21.25619,1.72347 l 8.73229,-3.94484 3.25546,1.80007 1.14899,-1.57027 -3.52355,-3.71506 0.22967,-3.29375 c 3.61231,-1.2385 6.02188,-4.09533 7.88969,-7.65991 5.03219,-10.0463 -1.78128,-15.44168 -3.52355,-22.09878 l -2.41288,-4.59594 c 4.81941,0.15368 15.30712,-2.62365 19.60934,-3.33207 4.30216,-0.70843 4.67384,1.24948 4.97893,-0.95747 0.38821,-2.80845 -0.63012,-1.39915 -4.51934,-5.47684 -3.88921,-4.07764 -12.89875,-14.25072 -17.65605,-18.03904 -2.6124,-6.85743 -1.6727,-13.54466 -2.41288,-20.33705 -0.2282,-2.09415 -3.42077,-4.85539 -5.43852,-5.13212 -4.08798,-0.56066 -6.70618,3.66716 -8.54078,3.14056 -1.4843,-0.42604 -0.24889,-5.78025 -2.64268,-6.5492 -1.96272,-0.63047 -6.67987,-2.30731 -10.26425,-3.40866 L 233.6537,377.09088 z m -22.03861,2.81777 -7.22294,28.54099 c 0.0645,3.11282 3.47806,7.44257 0.13849,9.32463 -10.95433,6.17332 -21.11571,5.32252 -26.90898,4.01213 l -0.30639,-7.12372 c -0.20958,-4.82067 5.99311,-7.41651 5.24702,-10.49405 l -2.48947,-10.22598 31.54236,-14.034 z"
       style="fill:#f6e1b9;fill-opacity:1;fill-rule:evenodd;stroke:#000000;stroke-width:1.22558343px;stroke-linecap:butt;stroke-linejoin:round;stroke-opacity:1;display:inline"
       sodipodi:nodetypes="cccsscsccccccsccccssssccccccccccccssscssssccccsccccc" />
    <path
       inkscape:connector-curvature="0"
       sodipodi:nodetypes="ccccccczccscccccccsccccscsccczccssccccsssscccccccccccsccccccccccc"
       id="path7643"
       d="m 282.08636,278.08952 c -2.84848,5.34901 -5.30016,7.68536 -7.7365,10.14937 l -10.03446,-2.48948 -11.41326,39.67827 c -11.70546,-3.3345 -20.14848,-6.17641 -41.13363,-5.51513 -4.5786,-2.85357 -14.36546,-0.64583 -21.60091,-0.84259 -8.64439,-2.25375 -16.69243,-5.11016 -22.86478,-6.12791 -5.71146,0.34061 -12.66823,3.4043 -19.11146,3.21716 -6.44322,-0.18703 -7.01697,-2.10568 -12.21751,-3.02565 -9.51193,0.21398 -18.34584,2.06821 -27.03945,4.32782 -3.43504,3.89123 -7.32871,4.87354 -10.111059,5.36193 -2.361276,0.41449 -6.715044,2.71956 -22.328608,2.60437 -3.934025,1.33858 -7.568542,1.46126 -12.677117,7.8897 -2.441509,0.57459 -4.961701,2.55252 -7.008818,-4.36614 L 54.62574,317.1167 c -1.960958,-4.59143 -2.999051,-5.1223 -3.944859,-5.24704 -3.159823,-0.24168 -5.08948,0.76302 -5.361928,3.40866 l 6.664111,38.18459 c 0,0 5.012538,26.25525 11.374959,35.42702 5.916871,8.52954 27.154321,21.44771 27.154321,21.44771 11.088606,-0.9097 22.193646,1.92385 33.282256,-3.06395 l 25.81386,10.95364 c 4.01881,0.67298 3.89326,-3.32875 4.82572,-6.12791 7.9127,6.41377 16.52811,0.57624 17.04326,0 2.66315,-2.979 4.51018,-7.07448 5.24705,-11.37495 2.70449,-1.08231 4.40357,-5.84776 7.8897,-4.36615 l 6.12791,2.60437 c 0.35518,2.30525 0.24193,4.74963 4.97894,5.85983 l 7.27689,-0.1532 c 1.71329,4.85022 1.3413,10.49457 5.44942,13.00317 4.10811,2.50857 15.18691,-4.73622 15.194,-4.80708 l -3.56184,-5.59172 c 5.9364,-2.55399 11.87286,-3.9076 17.80924,-8.311 0.13604,-0.10095 12.81686,10.98618 15.1283,9.65147 10.59401,-6.11733 20.83253,-4.02469 36.6526,-22.32859 l 82.72689,55.15125 c -0.10372,3.20985 -0.50176,6.40331 2.18309,9.61316 1.65642,-0.12034 3.12219,1.22459 4.36613,4.40446 l 25.85215,76.13937 c 0.86793,2.55622 5.70249,2.97679 9.57486,2.63485 5.1589,-0.45549 9.42803,-3.05888 13.50886,-7.07759 2.09341,-2.0616 1.066,-5.32984 0.20246,-7.81309 L 358.37903,318.91676 c -2.47654,-1.46134 -4.94856,-3.81357 -9.03868,-2.45116 -4.03825,2.11425 -5.52303,0.5295 -7.6599,7.928 l 2.25968,5.43853 -39.52506,15.39639 c -1.84156,-5.20826 -2.74921,-10.41794 -2.52777,-15.62618 l 1.99158,-14.24741 -4.51935,9.99614 -16.31557,-4.09803 -1.0341,7.162 -15.3198,-4.86403 c -0.15565,-0.34041 2.67058,-12.96218 4.00013,-16.72622 1.6491,-4.66858 2.90486,-3.21705 5.19954,-4.147 l 10.29478,-21.869 -4.09805,-2.71927 z m 52.432,60.81958 c 6.87324,-9.1e-4 8.17006,2.34069 13.21331,3.10227 l 30.94599,90.99957 -3.40865,6.47259 -82.95668,-55.38104 c 8.98294,-8.79249 9.562,-24.08454 12.67712,-36.53772 l 20.45192,-7.73648 c 3.87868,-0.6618 6.78592,-0.91887 9.07699,-0.91919 z"
       style="fill:#f6e1b9;fill-opacity:1;fill-rule:evenodd;stroke:#000000;stroke-width:1.22558343px;stroke-linecap:butt;stroke-linejoin:round;stroke-opacity:1;display:inline" />
    <path
       inkscape:connector-curvature="0"
       sodipodi:nodetypes="cccssssccssszssscsssssccsssssccssssscc"
       id="path3979"
       d="m 47.060594,141.22641 -0.919188,12.06433 c -0.597692,4.00312 -2.278997,7.73461 -4.021433,11.45156 -4.178872,7.33156 -15.91403,21.133 -15.894298,21.14131 0.01961,0.01 0.983972,0.90904 0.995788,0.88088 0.01225,-0.0282 -2.677902,3.34903 -2.642654,3.37035 0.04069,0.0245 -0.617768,-0.3401 -0.612791,-0.38299 0.0098,-0.0857 -8.084855,10.62675 -12.179237,17.73267 l 2.949049,4.32783 c -5.3398675,4.42992 -11.9223781,9.4481 -12.1409242,18.76674 -0.2186441,9.32486 0.5907066,11.82024 3.1695304,15.3198 2.0839087,2.828 6.1832648,3.55779 9.5568558,4.77021 3.392439,1.21924 8.241117,0.50987 10.953651,0.84889 2.712511,0.339 3.201494,-0.16987 4.278586,-0.48697 1.077092,-0.31704 1.873844,-0.85036 2.489454,-1.49367 0.61566,-0.64331 1.045569,-1.38513 1.302182,-2.18308 0.256613,-0.79796 0.344708,-1.63187 0.344708,-2.41286 l 0,-6.77902 c 0,-0.71269 -0.48364,-1.18237 -0.536193,-1.64686 -0.05246,-0.46452 -0.01471,-0.85811 0.153197,-1.1873 0.334096,-0.65836 1.05437,-1.09165 1.953262,-1.41707 0.898893,-0.32541 1.9802,-0.53395 3.025673,-0.8043 1.045471,-0.27034 2.060302,-0.57925 2.834161,-1.07238 l 2.412856,-8.1195 c 0.395789,-0.49055 0.914089,-0.86202 1.493691,-1.18727 0.579628,-0.32524 1.215754,-0.59205 1.914975,-0.8043 1.398414,-0.42447 2.98954,-0.67113 4.481026,-0.95747 1.491512,-0.28638 2.912355,-0.62055 3.983147,-1.1873 0.535409,-0.28338 0.968309,-0.64041 1.302182,-1.07239 0.333874,-0.43194 0.544649,-0.93742 0.612791,-1.57026 l 1.53198,-14.20913 c 1.039467,-2.63191 2.058661,-4.95994 3.063959,-7.00879 1.005322,-2.04885 2.014123,-3.83539 2.98736,-5.40024 0.97326,-1.56484 1.92919,-2.91813 2.872449,-4.09803 0.943282,-1.17989 1.880461,-2.16999 2.795874,-3.06395 1.830851,-1.78797 3.591646,-3.12758 5.323616,-4.36615 1.731994,-1.2386 3.405677,-2.38666 5.055531,-3.86826 L 47.060594,141.22641 z"
       style="fill:#f6e1b9;fill-opacity:1;fill-rule:evenodd;stroke:#000000;stroke-width:1.22558343px;stroke-linecap:butt;stroke-linejoin:round;stroke-opacity:1;display:inline" />
    <path
       inkscape:connector-curvature="0"
       sodipodi:nodetypes="ccccscsssssssssssssscc"
       id="path2446"
       d="m 143.29645,97.45078 -1.14899,0.42128 -44.197602,36.53772 1.531981,13.7878 c 2.584141,1.19766 7.072201,3.6214 7.659891,3.52355 8.17325,-1.36094 17.04529,-3.38095 24.93295,-0.4596 3.94487,1.45539 10.91033,4.33404 11.83456,4.36614 6.83907,0.23777 3.42234,-3.5996 4.36614,-6.3194 1.61843,-4.66397 3.5733,-5.84631 5.70661,-6.35771 0.93026,-0.22306 2.52339,0.0417 2.75444,-0.15466 0.13384,-0.11373 2.16081,-1.80022 1.95642,-2.6794 -0.34111,-1.46712 -2.32824,-2.97101 -2.37459,-3.48526 -0.0522,-0.57838 0.74074,-1.80678 1.91499,-3.33205 1.17418,-1.52529 2.74332,-3.3294 4.32783,-5.17044 1.5845,-1.84103 3.14911,-3.68308 4.32785,-5.20874 1.17871,-1.52562 1.95804,-2.75292 1.91497,-3.33203 -0.0858,-1.15366 -0.31379,-2.51248 -0.68939,-3.82995 -0.37559,-1.3175 -0.89879,-2.59368 -1.53197,-3.56186 -0.43276,-0.66166 -1.43911,-1.49632 -2.33629,-2.18306 -0.89717,-0.68675 -1.08947,-1.03607 -1.68517,-1.22559 -1.71913,-0.54695 -6.01302,0.0765 -6.01302,0.0765 -2.78193,-2.3764 -8.01646,-6.87285 -13.25161,-11.41324 z"
       style="fill:#f6e1b9;fill-opacity:1;fill-rule:evenodd;stroke:#000000;stroke-width:1.22558343px;stroke-linecap:butt;stroke-linejoin:round;stroke-opacity:1;display:inline" />
  </g>
</svg>
