<?xml version="1.0" encoding="UTF-8" standalone="no"?>
<svg
   xmlns:namespace="http://www.highcharts.com/svg/namespace"
   xmlns:dc="http://purl.org/dc/elements/1.1/"
   xmlns:cc="http://creativecommons.org/ns#"
   xmlns:rdf="http://www.w3.org/1999/02/22-rdf-syntax-ns#"
   xmlns:svg="http://www.w3.org/2000/svg"
   xmlns="http://www.w3.org/2000/svg"
   xmlns:sodipodi="http://sodipodi.sourceforge.net/DTD/sodipodi-0.dtd"
   xmlns:inkscape="http://www.inkscape.org/namespaces/inkscape"
   height="700pt"
   version="1.1"
   width="700pt"
   id="svg2"
   inkscape:version="0.48.5 r10040"
   sodipodi:docname="northeast-usa.svg">
  <metadata
     id="metadata28">
    <rdf:RDF>
      <cc:Work
         rdf:about="">
        <dc:format>image/svg+xml</dc:format>
        <dc:type
           rdf:resource="http://purl.org/dc/dcmitype/StillImage" />
      </cc:Work>
    </rdf:RDF>
  </metadata>
  <defs
     id="defs26" />
  <sodipodi:namedview
     pagecolor="#ffffff"
     bordercolor="#666666"
     borderopacity="1"
     objecttolerance="10"
     gridtolerance="10"
     guidetolerance="10"
     inkscape:pageopacity="0"
     inkscape:pageshadow="2"
     inkscape:window-width="1388"
     inkscape:window-height="774"
     id="namedview24"
     showgrid="false"
     inkscape:zoom="0.53942857"
     inkscape:cx="-144.35818"
     inkscape:cy="607.71539"
     inkscape:window-x="0"
     inkscape:window-y="0"
     inkscape:window-maximized="0"
     inkscape:current-layer="svg2" />
  <desc
     id="desc4">
Map version: 1.1.2
Copyright (c) 2015 Highsoft AS, Based on data from Natural Earth
</desc>
  <title
     id="title6">United States of America</title>
  <g
     id="admin1"
     transform="translate(-547.65572,-21.17267)" />
  <g
     transform="translate(-547.65572,-21.17267)"
     id="US">
    <desc>
      <name>United States of America</name>
      <labelrank>2</labelrank>
      <country-abbrev>U.S.A.</country-abbrev>
      <subregion>Northern America</subregion>
      <region-wb>North America</region-wb>
      <iso-a3>USA</iso-a3>
      <iso-a2>US</iso-a2>
      <woe-id>23424977</woe-id>
      <continent>North America</continent>
      <hc-key>us</hc-key>
      <hc-a2>US</hc-a2>
    </desc>
  </g>
  <path
     d="m 478.56281,483.91894 -3.4998,-1.74991 -31.06084,14.87421 -20.12393,6.12467 -14.43672,9.18701 -21.43635,18.37401 -6.12467,-6.12467 10.9369,-11.37439 -4.81223,-4.37477 -10.06196,-55.12204 38.49793,-8.31206 50.74729,-11.81187 10.06196,34.56065 z"
     id="US.CT"
     inkscape:connector-curvature="0"
     style="fill:#cee3f5;stroke:#6e6e6e;stroke-width:1.7499063">
    <desc>
      <labelrank>0</labelrank>
      <hasc>US.CT</hasc>
      <woe-id>2347565</woe-id>
      <state-fips>9</state-fips>
      <fips>US09</fips>
      <postal-code>CT</postal-code>
      <name>Connecticut</name>
      <country>United States of America</country>
      <region>Northeast</region>
      <longitude>-72.7594</longitude>
      <woe-name>Connecticut</woe-name>
      <latitude>41.6486</latitude>
      <woe-label>Connecticut, US, United States</woe-label>
      <type>State</type>
      <hc-middle-x>0.48</hc-middle-x>
      <hc-middle-y>0.50</hc-middle-y>
      <hc-key>us-ct</hc-key>
      <hc-a2>CT</hc-a2>
    </desc>
  </path>
  <path
     d="m 593.18168,219.24561 5.68719,-10.06196 6.12468,4.37476 -6.99963,16.18663 z m -112.43148,92.30755 -41.1228,-121.18101 10.06197,1.31244 4.37476,-26.2486 10.49943,-15.31168 2.62487,-17.93654 -4.81225,-7.4371 0,-21.87383 4.37477,-6.124667 -2.62486,-20.99888 20.5614,-62.99662 9.62449,-2.18738 5.24971,12.24934 7.87458,2.18738 30.62336,-21.4363498 25.81112,15.7491498 31.06083,95.369897 19.24897,-0.43748 5.6872,23.18626 8.31205,6.12467 8.74954,-3.93729 20.5614,19.68645 -9.18701,18.37402 -8.31205,-2.62487 -1.31244,9.18701 -22.31131,11.3744 2.1874,10.49943 -6.56216,7.4371 -6.12467,-9.62448 -16.18663,4.37476 -5.6872,16.62412 6.99962,17.06158 -17.49906,-19.68644 -0.43747,-12.68683 -9.62449,11.81187 3.06234,27.56102 -6.56215,11.3744 -6.56215,-1.31244 -4.37476,11.81188 -9.62449,3.4998 -3.49981,10.93692 -9.18701,-8.74953 -11.81187,14.8742 4.37476,9.18701 -13.12429,25.81112 -4.81224,16.18663 -17.49907,-17.93654 z"
     id="US.ME"
     inkscape:connector-curvature="0"
     style="fill:#cee3f5;stroke:#6e6e6e;stroke-width:1.7499063">
    <desc>
      <labelrank>0</labelrank>
      <hasc>US.ME</hasc>
      <woe-id>2347578</woe-id>
      <state-fips>23</state-fips>
      <fips>US23</fips>
      <postal-code>ME</postal-code>
      <name>Maine</name>
      <country>United States of America</country>
      <region>Northeast</region>
      <longitude>-69.1973</longitude>
      <woe-name>Maine</woe-name>
      <latitude>45.148</latitude>
      <woe-label>Maine, US, United States</woe-label>
      <type>State</type>
      <hc-middle-x>0.43</hc-middle-x>
      <hc-middle-y>0.40</hc-middle-y>
      <hc-key>us-me</hc-key>
      <hc-a2>ME</hc-a2>
    </desc>
  </path>
  <path
     d="m 538.4971,455.92044 13.1243,3.06233 -11.37439,3.93729 -5.24972,5.6872 z m -32.37326,-7.4371 -0.87495,-3.49982 -2.18739,1.74991 -7.4371,-4.81224 -6.56214,-14.43673 -21.87383,6.12467 -50.74729,11.81187 -38.49793,8.31206 -2.18738,-1.31243 0.87494,-50.74729 18.8115,-4.37476 23.18626,-5.24972 0,0 61.24672,-14.43674 5.68719,-10.06196 16.18663,-9.62448 5.24972,10.93692 10.93692,3.06234 -12.68682,10.93691 -3.49982,18.81149 6.99963,-3.06234 11.81187,4.81225 17.49906,25.37364 15.74916,3.06233 11.81186,-9.187 -6.99962,-17.06159 9.62449,10.93692 3.93729,13.12429 -12.68683,4.81225 -23.62373,16.6241 -2.62486,-13.99925 -11.37439,9.62449 0.87495,6.56215 -9.62449,5.68719 -3.49981,-10.49943 z"
     id="US.MA"
     inkscape:connector-curvature="0"
     style="fill:#cee3f5;stroke:#6e6e6e;stroke-width:1.7499063">
    <desc>
      <labelrank>0</labelrank>
      <hasc>US.MA</hasc>
      <woe-id>2347580</woe-id>
      <state-fips>25</state-fips>
      <fips>US25</fips>
      <postal-code>MA</postal-code>
      <name>Massachusetts</name>
      <country>United States of America</country>
      <region>Northeast</region>
      <longitude>-71.99930000000001</longitude>
      <woe-name>Massachusetts</woe-name>
      <latitude>42.3739</latitude>
      <woe-label>Massachusetts, US, United States</woe-label>
      <type>State</type>
      <hc-middle-x>0.36</hc-middle-x>
      <hc-middle-y>0.47</hc-middle-y>
      <hc-key>us-ma</hc-key>
      <hc-a2>MA</hc-a2>
    </desc>
  </path>
  <path
     d="m 501.3116,342.614 2.18738,0.43748 -1.74991,14.8742 -16.18663,9.62448 -5.68719,10.06196 -61.24672,14.43674 0,0 -7.4371,-9.18701 0,-31.93579 -3.93729,-16.62411 4.81224,-20.5614 1.31243,-27.56103 -2.18738,-10.06196 15.31168,-16.6241 3.4998,-12.68683 -6.99962,-8.74953 1.31244,-21.43635 3.06233,-21.87383 12.24934,-4.37477 41.1228,121.18101 3.06233,13.1243 z"
     id="US.NH"
     inkscape:connector-curvature="0"
     style="fill:#cee3f5;stroke:#6e6e6e;stroke-width:1.7499063">
    <desc>
      <labelrank>0</labelrank>
      <hasc>US.NH</hasc>
      <woe-id>2347588</woe-id>
      <state-fips>33</state-fips>
      <fips>US33</fips>
      <postal-code>NH</postal-code>
      <name>New Hampshire</name>
      <country>United States of America</country>
      <region>Northeast</region>
      <longitude>-71.6301</longitude>
      <woe-name>New Hampshire</woe-name>
      <latitude>43.5993</latitude>
      <woe-label>New Hampshire, US, United States</woe-label>
      <type>State</type>
      <hc-middle-x>0.38</hc-middle-x>
      <hc-middle-y>0.57</hc-middle-y>
      <hc-key>us-nh</hc-key>
      <hc-a2>NH</hc-a2>
    </desc>
  </path>
  <path
     d="m 513.12346,458.98277 -4.37476,1.74991 -2.62486,-12.24934 3.49981,0 z m -45.93503,-25.37364 21.87383,-6.12467 6.56214,14.43673 7.4371,4.81224 4.37477,15.31168 -9.62449,4.37477 -1.7499,8.31205 -17.49907,9.18701 -1.31242,-15.74916 z"
     id="US.RI"
     inkscape:connector-curvature="0"
     style="fill:#cee3f5;stroke:#6e6e6e;stroke-width:1.7499063">
    <desc>
      <labelrank>0</labelrank>
      <hasc>US.RI</hasc>
      <woe-id>2347598</woe-id>
      <state-fips>44</state-fips>
      <fips>US44</fips>
      <postal-code>RI</postal-code>
      <name>Rhode Island</name>
      <country>United States of America</country>
      <region>Northeast</region>
      <longitude>-71.5082</longitude>
      <woe-name>Rhode Island</woe-name>
      <latitude>41.6242</latitude>
      <woe-label>Rhode Island, US, United States</woe-label>
      <type>State</type>
      <hc-middle-x>0.55</hc-middle-x>
      <hc-middle-y>0.78</hc-middle-y>
      <hc-key>us-ri</hc-key>
      <hc-a2>RI</hc-a2>
    </desc>
  </path>
  <path
     d="m 395.44227,397.29858 -18.8115,4.37476 -13.56177,-57.30943 -10.06196,-0.87495 0,-11.3744 -9.18701,-20.99887 2.18738,-14.43673 -2.18738,-17.06158 -5.6872,-6.56215 -6.99962,-31.06084 32.81074,-8.74953 60.37178,-16.62411 -1.31244,21.43635 6.99962,8.74953 -3.4998,12.68683 -15.31168,16.6241 2.18738,10.06196 -1.31243,27.56103 -4.81224,20.5614 3.93729,16.62411 0,31.93579 7.4371,9.18701 0,0 z"
     id="US.VT"
     inkscape:connector-curvature="0"
     style="fill:#cee3f5;stroke:#6e6e6e;stroke-width:1.7499063">
    <desc>
      <labelrank>0</labelrank>
      <hasc>US.VT</hasc>
      <woe-id>2347604</woe-id>
      <state-fips>50</state-fips>
      <fips>US50</fips>
      <postal-code>VT</postal-code>
      <name>Vermont</name>
      <country>United States of America</country>
      <region>Northeast</region>
      <longitude>-72.7317</longitude>
      <woe-name>Vermont</woe-name>
      <latitude>44.0886</latitude>
      <woe-label>Vermont, US, United States</woe-label>
      <type>State</type>
      <hc-middle-x>0.42</hc-middle-x>
      <hc-middle-y>0.43</hc-middle-y>
      <hc-key>us-vt</hc-key>
      <hc-a2>VT</hc-a2>
    </desc>
  </path>
  <path
     d="m 307.50947,551.72781 17.49906,-32.37327 24.4987,7.87458 24.49869,7.87458 -2.18738,21.43635 -7.87459,7.87458 -1.7499,10.93691 17.49906,2.62486 2.18739,5.24972 3.4998,44.18514 -9.62447,14.8742 -0.87496,15.74915 -10.93692,14.43673 -7.87458,20.99888 -4.81224,1.7499 0.87495,-15.74915 -14.87419,0.43747 -26.2486,-15.74915 -3.93729,-10.06196 3.93729,-12.68683 14.8742,-10.49943 3.93729,-11.81187 13.99925,-13.99925 -26.24859,-23.62373 -5.24972,0.43747 -3.49982,-13.56177 4.37477,-10.93692 z"
     id="US.NJ"
     inkscape:connector-curvature="0"
     style="fill:#cee3f5;stroke:#6e6e6e;stroke-width:1.7499063">
    <desc>
      <labelrank>0</labelrank>
      <hasc>US.NJ</hasc>
      <woe-id>2347589</woe-id>
      <state-fips>34</state-fips>
      <fips>US34</fips>
      <postal-code>NJ</postal-code>
      <name>New Jersey</name>
      <country>United States of America</country>
      <region>Northeast</region>
      <longitude>-74.4653</longitude>
      <woe-name>New Jersey</woe-name>
      <latitude>40.0449</latitude>
      <woe-label>New Jersey, US, United States</woe-label>
      <type>State</type>
      <hc-middle-x>0.68</hc-middle-x>
      <hc-middle-y>0.64</hc-middle-y>
      <hc-key>us-nj</hc-key>
      <hc-a2>NJ</hc-a2>
    </desc>
  </path>
  <path
     d="m 325.00853,519.35454 -24.0612,-13.56177 -4.37477,-14.8742 -16.62411,-9.18701 -236.674827,48.5599 -3.499813,-19.24897 28.435977,-28.43598 11.374391,-21.87383 -13.99925,-17.06159 -2.187382,-12.24934 18.374015,-9.62449 30.185889,-8.74953 19.68644,0 12.24935,3.93729 8.31205,-4.81224 20.5614,-3.06234 13.1243,-6.99962 12.24934,-17.49907 11.37439,-6.56214 -5.68719,-19.24897 3.49981,-11.81187 -8.74953,4.37476 -6.56215,-10.06196 7.87458,-13.99924 13.99925,-9.62449 4.81224,-16.62411 17.49907,-24.93617 17.93653,-15.31168 8.74953,-1.31242 68.24635,-17.49907 6.99962,31.06084 5.6872,6.56215 2.18738,17.06158 -2.18738,14.43673 9.18701,20.99887 0,11.3744 10.06196,0.87495 13.56177,57.30943 -0.87494,50.74729 2.18738,1.31243 10.06196,55.12204 4.81223,4.37477 -10.9369,11.37439 6.12467,6.12467 -4.37477,13.56178 13.56178,-11.37439 14.8742,-1.31243 5.68719,-5.6872 26.2486,-8.74953 10.93691,-13.99925 10.93692,6.99962 1.31243,-6.99962 2.18738,5.24972 13.12429,-7.4371 -25.37364,22.74878 -16.18663,8.31205 -14.43672,13.99925 -27.12355,13.99925 -22.31131,6.12468 -12.68682,8.31205 0.43748,-9.62448 7.4371,-0.87496 4.81224,-13.56177 -4.37476,2.62486 1.31243,-17.93654 -24.49869,-7.87458 -18.37402,-5.6872 -6.12468,-1.7499 z"
     id="US.NY"
     inkscape:connector-curvature="0"
     style="fill:#cee3f5;stroke:#6e6e6e;stroke-width:1.7499063">
    <desc>
      <labelrank>0</labelrank>
      <hasc>US.NY</hasc>
      <woe-id>2347591</woe-id>
      <state-fips>36</state-fips>
      <fips>US36</fips>
      <postal-code>NY</postal-code>
      <name>New York</name>
      <country>United States of America</country>
      <region>Northeast</region>
      <longitude>-75.32420000000001</longitude>
      <woe-name>New York</woe-name>
      <latitude>43.1988</latitude>
      <woe-label>New York, US, United States</woe-label>
      <type>State</type>
      <hc-middle-x>0.54</hc-middle-x>
      <hc-middle-y>0.49</hc-middle-y>
      <hc-key>us-ny</hc-key>
      <hc-a2>NY</hc-a2>
    </desc>
  </path>
  <path
     d="m 307.50947,551.72781 5.6872,5.68719 -4.37477,10.93692 3.49982,13.56177 5.24972,-0.43747 26.24859,23.62373 -13.99925,13.99925 -4.81225,9.62449 -13.56177,10.49943 -10.06196,0 -8.74953,10.49944 -108.05671,23.62374 -95.807374,18.37401 -58.184384,10.49944 -11.374391,-66.93392 0,0 -16.62411,-96.68232 6.999626,-3.93729 30.185883,-23.62373 3.499813,19.24897 236.674827,-48.5599 16.62411,9.18701 4.37477,14.8742 24.0612,13.56177 0,0.43748 z"
     id="US.PA"
     inkscape:connector-curvature="0"
     style="fill:#cee3f5;stroke:#6e6e6e;stroke-width:1.7499063">
    <desc>
      <labelrank>0</labelrank>
      <hasc>US.PA</hasc>
      <woe-id>2347597</woe-id>
      <state-fips>42</state-fips>
      <fips>US42</fips>
      <postal-code>PA</postal-code>
      <name>Pennsylvania</name>
      <country>United States of America</country>
      <region>Northeast</region>
      <longitude>-77.60939999999999</longitude>
      <woe-name>Pennsylvania</woe-name>
      <latitude>40.8601</latitude>
      <woe-label>Pennsylvania, US, United States</woe-label>
      <type>State</type>
      <hc-middle-x>0.50</hc-middle-x>
      <hc-middle-y>0.49</hc-middle-y>
      <hc-key>us-pa</hc-key>
      <hc-a2>PA</hc-a2>
    </desc>
  </path>
</svg>
