<?xml version="1.0" encoding="UTF-8" standalone="no"?>
<svg
   xmlns:namespace="http://www.highcharts.com/svg/namespace"
   xmlns:dc="http://purl.org/dc/elements/1.1/"
   xmlns:cc="http://creativecommons.org/ns#"
   xmlns:rdf="http://www.w3.org/1999/02/22-rdf-syntax-ns#"
   xmlns:svg="http://www.w3.org/2000/svg"
   xmlns="http://www.w3.org/2000/svg"
   xmlns:sodipodi="http://sodipodi.sourceforge.net/DTD/sodipodi-0.dtd"
   xmlns:inkscape="http://www.inkscape.org/namespaces/inkscape"
   height="700pt"
   version="1.1"
   width="700pt"
   id="svg3539"
   inkscape:version="0.48.5 r10040"
   sodipodi:docname="usaTerritories.svg">
  <metadata
     id="metadata3625">
    <rdf:RDF>
      <cc:Work
         rdf:about="">
        <dc:format>image/svg+xml</dc:format>
        <dc:type
           rdf:resource="http://purl.org/dc/dcmitype/StillImage" />
      </cc:Work>
    </rdf:RDF>
  </metadata>
  <defs
     id="defs3623" />
  <sodipodi:namedview
     pagecolor="#ffffff"
     bordercolor="#666666"
     borderopacity="1"
     objecttolerance="10"
     gridtolerance="10"
     guidetolerance="10"
     inkscape:pageopacity="0"
     inkscape:pageshadow="2"
     inkscape:window-width="1428"
     inkscape:window-height="739"
     id="namedview3621"
     showgrid="false"
     inkscape:zoom="8.6308571"
     inkscape:cx="571.96479"
     inkscape:cy="313.56837"
     inkscape:window-x="0"
     inkscape:window-y="0"
     inkscape:window-maximized="0"
     inkscape:current-layer="admin1" />
  <desc
     id="desc3541">
Map version: 1.1.2
Copyright (c) 2015 Highsoft AS, Based on data from Natural Earth
</desc>
  <title
     id="title3543">United States of America with Territories</title>
  <g
     id="admin1">
    <g
       id="US">
      <namespace:desc>
        <namespace:name>United States of America</namespace:name>
        <namespace:labelrank>2</namespace:labelrank>
        <namespace:country-abbrev>U.S.A.</namespace:country-abbrev>
        <namespace:subregion>Northern America</namespace:subregion>
        <namespace:region-wb>North America</namespace:region-wb>
        <namespace:iso-a3>USA</namespace:iso-a3>
        <namespace:iso-a2>US</namespace:iso-a2>
        <namespace:woe-id>23424977</namespace:woe-id>
        <namespace:continent>North America</namespace:continent>
        <namespace:hc-key>us</namespace:hc-key>
        <namespace:hc-a2>US</namespace:hc-a2>
      </namespace:desc>
    </g>
    <g
       id="g3596">
      <namespace:desc>
        <namespace:name>United States of America</namespace:name>
        <namespace:labelrank>2</namespace:labelrank>
        <namespace:country-abbrev>U.S.A.</namespace:country-abbrev>
        <namespace:subregion>Northern America</namespace:subregion>
        <namespace:region-wb>North America</namespace:region-wb>
        <namespace:iso-a3>USA</namespace:iso-a3>
        <namespace:iso-a2>US</namespace:iso-a2>
        <namespace:woe-id>23424977</namespace:woe-id>
        <namespace:continent>North America</namespace:continent>
        <namespace:hc-key>us</namespace:hc-key>
        <namespace:hc-a2>US</namespace:hc-a2>
      </namespace:desc>
    </g>
    <g
       id="g3599">
      <namespace:desc>
        <namespace:name>United States of America</namespace:name>
        <namespace:labelrank>2</namespace:labelrank>
        <namespace:country-abbrev>U.S.A.</namespace:country-abbrev>
        <namespace:subregion>Northern America</namespace:subregion>
        <namespace:region-wb>North America</namespace:region-wb>
        <namespace:iso-a3>USA</namespace:iso-a3>
        <namespace:iso-a2>US</namespace:iso-a2>
        <namespace:woe-id>23424977</namespace:woe-id>
        <namespace:continent>North America</namespace:continent>
        <namespace:hc-key>us</namespace:hc-key>
        <namespace:hc-a2>US</namespace:hc-a2>
      </namespace:desc>
    </g>
    <g
       id="GU">
      <namespace:desc>
        <namespace:name>Guam</namespace:name>
        <namespace:labelrank>6</namespace:labelrank>
        <namespace:country-abbrev>Guam</namespace:country-abbrev>
        <namespace:subregion>Micronesia</namespace:subregion>
        <namespace:region-wb>East Asia &amp; Pacific</namespace:region-wb>
        <namespace:iso-a3>GUM</namespace:iso-a3>
        <namespace:iso-a2>GU</namespace:iso-a2>
        <namespace:woe-id>23424832</namespace:woe-id>
        <namespace:continent>Oceania</namespace:continent>
        <namespace:hc-key>gu</namespace:hc-key>
        <namespace:hc-a2>GU</namespace:hc-a2>
      </namespace:desc>
    </g>
    <path
       d="m 565.22001,572.50804 -2.085,2.134 -1.204,3.506 -0.845,7.947 -2.069,3.083 -1.47,0.609 -1.71,0.054 -1.399,-0.501 -0.84,-1.545 -1.125,-1.475 -0.261,-0.424 -0.478,-3.228 -0.259,-0.573 -0.395,-0.503 -0.484,-0.399 -0.608,-0.283 0.862,-0.846 0.551,-0.871 0.295,-1.084 0.096,-1.508 -0.156,-0.705 -0.412,-0.879 -0.467,-0.749 -0.875,-0.663 0.379,-0.64 0.654,-0.361 0.341,0.454 1.153,-0.104 5.055,-2.87 1.168,-1.021 4.576,-2.603 0.896,-0.878 0.767,-1.017 0.675,-1.226 1.798,-5.689 0.544,-1.023 0.99,-0.926 1.361,-0.777 1.158,-0.083 0.47,1.188 0.837,1.897 1.46,1.082 1.668,0.488 1.455,0.12 0.012,0.997 -1.224,2.229 -2.585,3.709 -2.949,2.653 z"
       id="GU.3605"
       inkscape:connector-curvature="0"
       style="fill:#cee3f5;stroke:#6e6e6e;stroke-width:0.40000001">
      <namespace:desc>
        <namespace:labelrank>20</namespace:labelrank>
        <namespace:hasc>GU</namespace:hasc>
        <namespace:alt-name>NULL</namespace:alt-name>
        <namespace:woe-id>23424832</namespace:woe-id>
        <namespace:subregion>NULL</namespace:subregion>
        <namespace:fips>NULL</namespace:fips>
        <namespace:postal-code>NULL</namespace:postal-code>
        <namespace:name>Guam</namespace:name>
        <namespace:country>Guam</namespace:country>
        <namespace:type-en>NULL</namespace:type-en>
        <namespace:region>NULL</namespace:region>
        <namespace:longitude>144.789</namespace:longitude>
        <namespace:woe-name>Guam</namespace:woe-name>
        <namespace:latitude>13.4733</namespace:latitude>
        <namespace:woe-label>NULL</namespace:woe-label>
        <namespace:type>NULL</namespace:type>
        <namespace:hc-middle-x>0.24</namespace:hc-middle-x>
        <namespace:hc-middle-y>0.72</namespace:hc-middle-y>
        <namespace:hc-key>gu-3605</namespace:hc-key>
        <namespace:hc-a2>GU</namespace:hc-a2>
      </namespace:desc>
    </path>
    <g
       id="MP">
      <namespace:desc>
        <namespace:name>Northern Mariana Islands</namespace:name>
        <namespace:labelrank>6</namespace:labelrank>
        <namespace:country-abbrev>N.M.I.</namespace:country-abbrev>
        <namespace:subregion>Micronesia</namespace:subregion>
        <namespace:region-wb>East Asia &amp; Pacific</namespace:region-wb>
        <namespace:iso-a3>MNP</namespace:iso-a3>
        <namespace:iso-a2>MP</namespace:iso-a2>
        <namespace:woe-id>23424788</namespace:woe-id>
        <namespace:continent>Oceania</namespace:continent>
        <namespace:hc-key>mp</namespace:hc-key>
        <namespace:hc-a2>NM</namespace:hc-a2>
      </namespace:desc>
    </g>
    <path
       d="m 653.67301,571.23504 -0.821,0.606 -0.79,-0.547 -0.187,-0.548 -0.153,-1.162 -0.233,-0.595 -0.499,-0.672 -0.108,-0.306 0.056,-0.49 0.483,-0.965 0.867,-1.105 0.904,-0.64 0.581,0.426 0.213,0.541 -0.06,0.535 -0.137,0.574 -0.03,0.651 0.164,0.37 0.556,0.667 0.111,0.433 -0.27,1.084 z"
       id="MP.TI"
       inkscape:connector-curvature="0"
       style="fill:#cee3f5;stroke:#6e6e6e;stroke-width:0.40000001">
      <namespace:desc>
        <namespace:labelrank>20</namespace:labelrank>
        <namespace:hasc>MP.TI</namespace:hasc>
        <namespace:alt-name>NULL</namespace:alt-name>
        <namespace:woe-id>29389659</namespace:woe-id>
        <namespace:subregion>NULL</namespace:subregion>
        <namespace:fips>120</namespace:fips>
        <namespace:postal-code>TI</namespace:postal-code>
        <namespace:name>Tinian</namespace:name>
        <namespace:country>Northern Mariana Islands</namespace:country>
        <namespace:type-en>NULL</namespace:type-en>
        <namespace:region>NULL</namespace:region>
        <namespace:longitude>145.622</namespace:longitude>
        <namespace:woe-name>Tinian</namespace:woe-name>
        <namespace:latitude>14.9995</namespace:latitude>
        <namespace:woe-label>Tinian, MP, Northern Mariana Islands</namespace:woe-label>
        <namespace:type>NULL</namespace:type>
        <namespace:hc-middle-x>0.49</namespace:hc-middle-x>
        <namespace:hc-middle-y>0.53</namespace:hc-middle-y>
        <namespace:hc-key>mp-ti</namespace:hc-key>
        <namespace:hc-a2>TI</namespace:hc-a2>
      </namespace:desc>
    </path>
    <path
       d="m 659.41401,561.21504 -0.195,0.384 -0.254,0.19 -0.307,-0.019 -0.365,-0.247 -0.502,0.46 -0.256,0.554 0.023,0.589 0.303,0.566 0.23,0.562 -0.576,-0.021 -0.715,-0.254 -0.193,-0.138 -0.911,0.21 -0.349,-0.086 -0.136,-0.592 0.073,-0.622 0.499,-1.556 0.051,-0.602 -0.018,-0.468 0.076,-0.401 0.312,-0.384 0.217,-0.133 0.775,-0.306 0.141,-0.201 0.029,-0.487 0.085,-0.175 0.504,-0.247 1.067,-0.334 0.552,-0.413 0.544,-0.203 0.632,0.087 0.291,0.33 -0.489,0.51 -0.467,0.292 -0.319,0.461 -0.7,1.797 0.025,0.366 z"
       id="MP.SA"
       inkscape:connector-curvature="0"
       style="fill:#cee3f5;stroke:#6e6e6e;stroke-width:0.40000001">
      <namespace:desc>
        <namespace:labelrank>20</namespace:labelrank>
        <namespace:hasc>MP.SA</namespace:hasc>
        <namespace:alt-name>NULL</namespace:alt-name>
        <namespace:woe-id>29389658</namespace:woe-id>
        <namespace:subregion>NULL</namespace:subregion>
        <namespace:fips>110</namespace:fips>
        <namespace:postal-code>SA</namespace:postal-code>
        <namespace:name>Saipan</namespace:name>
        <namespace:country>Northern Mariana Islands</namespace:country>
        <namespace:type-en>NULL</namespace:type-en>
        <namespace:region>NULL</namespace:region>
        <namespace:longitude>145.744</namespace:longitude>
        <namespace:woe-name>Saipan</namespace:woe-name>
        <namespace:latitude>15.1921</namespace:latitude>
        <namespace:woe-label>Saipan, MP, Northern Mariana Islands</namespace:woe-label>
        <namespace:type>NULL</namespace:type>
        <namespace:hc-middle-x>0.40</namespace:hc-middle-x>
        <namespace:hc-middle-y>0.52</namespace:hc-middle-y>
        <namespace:hc-key>mp-sa</namespace:hc-key>
        <namespace:hc-a2>SA</namespace:hc-a2>
      </namespace:desc>
    </path>
    <g
       id="g3607">
      <namespace:desc>
        <namespace:name>Northern Mariana Islands</namespace:name>
        <namespace:labelrank>6</namespace:labelrank>
        <namespace:country-abbrev>N.M.I.</namespace:country-abbrev>
        <namespace:subregion>Micronesia</namespace:subregion>
        <namespace:region-wb>East Asia &amp; Pacific</namespace:region-wb>
        <namespace:iso-a3>MNP</namespace:iso-a3>
        <namespace:iso-a2>MP</namespace:iso-a2>
        <namespace:woe-id>23424788</namespace:woe-id>
        <namespace:continent>Oceania</namespace:continent>
        <namespace:hc-key>mp</namespace:hc-key>
        <namespace:hc-a2>NM</namespace:hc-a2>
      </namespace:desc>
    </g>
    <path
       d="m 641.36001,586.34604 -0.3675,0.4346 -0.8911,0.4364 -0.4883,-0.1592 -0.4561,-0.3787 -0.8369,-0.2164 -1.3708,0.1545 -0.7472,-0.0312 -0.3201,-0.3058 0.5377,-0.8239 1.2431,-0.7949 1.3626,-0.5939 0.9045,-0.2301 2.1839,-0.8912 1.2827,-0.1052 0.4855,1.026 -0.152,0.5625 -0.2496,0.4064 -0.3963,0.2459 -0.6151,0.0771 -0.4946,0.1907 -0.3296,0.4601 z"
       id="MP.RO"
       inkscape:connector-curvature="0"
       style="fill:#cee3f5;stroke:#6e6e6e;stroke-width:0.40000001">
      <namespace:desc>
        <namespace:labelrank>20</namespace:labelrank>
        <namespace:hasc>MP.RO</namespace:hasc>
        <namespace:alt-name>NULL</namespace:alt-name>
        <namespace:woe-id>29389660</namespace:woe-id>
        <namespace:subregion>NULL</namespace:subregion>
        <namespace:fips>100</namespace:fips>
        <namespace:postal-code>RO</namespace:postal-code>
        <namespace:name>Rota</namespace:name>
        <namespace:country>Northern Mariana Islands</namespace:country>
        <namespace:type-en>NULL</namespace:type-en>
        <namespace:region>NULL</namespace:region>
        <namespace:longitude>145.205</namespace:longitude>
        <namespace:woe-name>Rota</namespace:woe-name>
        <namespace:latitude>14.1465</namespace:latitude>
        <namespace:woe-label>Rota, MP, Northern Mariana Islands</namespace:woe-label>
        <namespace:type>NULL</namespace:type>
        <namespace:hc-middle-x>0.58</namespace:hc-middle-x>
        <namespace:hc-middle-y>0.49</namespace:hc-middle-y>
        <namespace:hc-key>mp-ro</namespace:hc-key>
        <namespace:hc-a2>RO</namespace:hc-a2>
      </namespace:desc>
    </path>
    <g
       id="AS">
      <namespace:desc>
        <namespace:name>American Samoa</namespace:name>
        <namespace:labelrank>4</namespace:labelrank>
        <namespace:country-abbrev>Am. Samoa</namespace:country-abbrev>
        <namespace:subregion>Polynesia</namespace:subregion>
        <namespace:region-wb>East Asia &amp; Pacific</namespace:region-wb>
        <namespace:iso-a3>ASM</namespace:iso-a3>
        <namespace:iso-a2>AS</namespace:iso-a2>
        <namespace:woe-id>23424746</namespace:woe-id>
        <namespace:continent>Oceania</namespace:continent>
        <namespace:hc-key>as</namespace:hc-key>
        <namespace:hc-a2>AS</namespace:hc-a2>
      </namespace:desc>
    </g>
    <path
       style="fill:#cee3f5;stroke:#6e6e6e;stroke-width:0.40000001"
       d="M 607.46875 569.84375 L 602.96875 570.84375 L 600.1875 574.40625 L 598.1875 574.75 L 594 574.6875 L 592.03125 575.0625 L 586.875 578.15625 L 587.90625 579.0625 L 591.09375 580.6875 L 596.0625 584.09375 L 596.875 585.03125 L 600.125 582.40625 L 603.6875 577.59375 L 604.78125 576.09375 L 607.71875 573.9375 L 609.78125 573.375 L 616.8125 573 L 618.71875 572.15625 L 618.875 570.625 L 617.78125 569.875 L 616 571.40625 L 612.46875 570.125 L 607.46875 569.84375 z "
       id="AS.6515" />
    <g
       id="PR">
      <namespace:desc>
        <namespace:name>Puerto Rico</namespace:name>
        <namespace:labelrank>5</namespace:labelrank>
        <namespace:country-abbrev>P.R.</namespace:country-abbrev>
        <namespace:subregion>Caribbean</namespace:subregion>
        <namespace:region-wb>Latin America &amp; Caribbean</namespace:region-wb>
        <namespace:iso-a3>PRI</namespace:iso-a3>
        <namespace:iso-a2>PR</namespace:iso-a2>
        <namespace:woe-id>23424935</namespace:woe-id>
        <namespace:continent>North America</namespace:continent>
        <namespace:hc-key>pr</namespace:hc-key>
        <namespace:hc-a2>PR</namespace:hc-a2>
      </namespace:desc>
    </g>
    <path
       d="m 614.97201,536.25604 -0.24,0.132 -0.887,-0.041 -1.241,0.735 -0.3,-0.278 -1.107,0.4 -2.582,0.658 -0.514,0.255 -0.687,-0.206 -1.029,0.144 -0.966,-0.116 -0.526,-0.967 1.333,-0.081 0.654,-0.261 1.365,-0.931 2.639,-0.476 0.423,0.066 1.158,0.375 1.739,0.034 0.435,0.159 z m 0.499,-6.481 0.411,0.593 -0.452,0.01 0.231,0.232 -0.629,-0.047 -0.286,-0.428 -0.223,0.004 0.373,0.857 -0.125,0.342 -0.471,-0.709 -1.407,-1.259 0.007,-0.122 0.814,-0.021 0.947,0.171 z m -58.105,-5.377 3.475,0.667 3.423,-0.488 0.47,0.054 1.244,0.417 0.492,0.025 1.289,-0.303 1.873,-0.196 0.877,0.098 0.88,0.307 0.539,-0.11 2.125,-0.008 1.314,0.366 2.8,-0.599 2.605,0.745 1.503,-0.462 1.757,0.53 0.366,-0.289 0.433,0.066 0.365,0.484 0.283,0.136 0.57,-0.542 0.329,0.092 -0.102,0.456 0.646,0.327 0.329,0.769 0.506,0.02 1.084,-0.348 -0.004,-0.258 -0.549,-0.061 -0.605,-0.296 -0.895,-0.878 2.182,0.646 1.452,0.316 0.472,-0.223 0.284,-0.451 0.751,0.148 1.52,0.409 0.51,-0.356 0.398,0.073 0.411,0.298 1.069,0.221 0.584,0.308 0.612,0.623 0.36,-0.181 0.24,-0.349 0.237,0.241 -0.295,0.465 0.797,-0.344 0.577,0.804 0.564,0.291 0.432,-0.316 0.9,0.681 1.154,0.142 1.102,-0.874 0.283,0.299 -0.291,1.718 -0.046,1.449 0.145,0.407 -0.129,0.427 0.514,0.357 0.456,-0.234 -0.09,0.322 0.505,0.778 -0.338,0.253 -0.041,0.295 -0.294,0.032 -0.333,-0.505 -0.369,0.009 -0.113,0.37 0.331,0.432 -0.313,0.277 -0.395,-0.064 -0.561,-0.277 -1.174,0.513 -0.651,0.164 -0.542,0.257 -0.563,0.58 -1.141,1.83 -0.078,0.913 -0.449,0.608 -0.932,0.287 -0.168,0.216 0.355,1.013 -0.635,0.606 -1.227,0.782 -1.71,0.624 -0.747,-0.004 -1.439,-0.202 -0.399,0.09 -0.97,0.405 -1.244,0.019 -0.678,0.182 -1.925,1.06 -1.094,0.066 -0.26,0.17 -0.214,-0.47 0.441,-0.277 -0.451,-0.432 -0.636,0.587 -0.378,0.112 -1.702,-0.266 -0.474,-0.62 -0.715,-0.283 -0.542,0.042 -0.765,0.195 -0.934,0.663 -0.675,-0.073 -0.65,-0.489 -0.546,-0.621 -0.568,-0.355 -1.085,0.206 -0.825,0.281 -1.088,0.077 -0.682,0.414 -0.392,0.083 -0.525,-0.262 -0.469,0.265 -0.232,-0.389 -0.57,-0.043 -1.349,0.2 -1.249,-0.435 -1.357,0.016 0.021,-0.473 -0.296,-0.14 -0.444,0.104 -0.416,0.264 0.004,0.259 0.452,-0.006 -0.375,0.526 -0.649,0.365 -1.446,0.341 -1.032,-0.025 -1.045,0.048 -0.197,0.71 -0.621,-0.064 -0.471,-0.336 -0.752,-0.78 -1.42,-0.147 -0.8,0.021 -0.475,-0.147 -0.457,0.396 -0.539,0.296 -0.484,0.117 -0.642,-0.072 -1.424,-7.803 0.474,-0.484 0.183,-0.405 -0.647,-0.737 -0.646,-1.863 -0.693,-3.804 0.845,-0.458 0.814,-0.66 0.036,-0.768 -0.355,-0.602 -0.052,-0.878 0.597,-0.799 1.644,-0.496 1.758,0.038 z"
       id="PR.3614"
       inkscape:connector-curvature="0"
       style="fill:#cee3f5;stroke:#6e6e6e;stroke-width:0.40000001">
      <namespace:desc>
        <namespace:labelrank>20</namespace:labelrank>
        <namespace:hasc>PR.</namespace:hasc>
        <namespace:alt-name>NULL</namespace:alt-name>
        <namespace:woe-id>23424935</namespace:woe-id>
        <namespace:subregion>NULL</namespace:subregion>
        <namespace:fips>72033</namespace:fips>
        <namespace:postal-code>NULL</namespace:postal-code>
        <namespace:name>Puerto Rico</namespace:name>
        <namespace:country>Puerto Rico</namespace:country>
        <namespace:type-en>NULL</namespace:type-en>
        <namespace:region>NULL</namespace:region>
        <namespace:longitude>-66.44410000000001</namespace:longitude>
        <namespace:woe-name>Puerto Rico</namespace:woe-name>
        <namespace:latitude>18.2448</namespace:latitude>
        <namespace:woe-label>NULL</namespace:woe-label>
        <namespace:type>NULL</namespace:type>
        <namespace:hc-middle-x>0.41</namespace:hc-middle-x>
        <namespace:hc-middle-y>0.50</namespace:hc-middle-y>
        <namespace:hc-key>pr-3614</namespace:hc-key>
        <namespace:hc-a2>PR</namespace:hc-a2>
      </namespace:desc>
    </path>
    <g
       id="VI">
      <namespace:desc>
        <namespace:name>United States Virgin Islands</namespace:name>
        <namespace:labelrank>6</namespace:labelrank>
        <namespace:country-abbrev>V.I. (U.S.)</namespace:country-abbrev>
        <namespace:subregion>Caribbean</namespace:subregion>
        <namespace:region-wb>Latin America &amp; Caribbean</namespace:region-wb>
        <namespace:iso-a3>VIR</namespace:iso-a3>
        <namespace:iso-a2>VI</namespace:iso-a2>
        <namespace:woe-id>23424985</namespace:woe-id>
        <namespace:continent>North America</namespace:continent>
        <namespace:hc-key>vi</namespace:hc-key>
        <namespace:hc-a2>US</namespace:hc-a2>
      </namespace:desc>
    </g>
    <path
       d="m 637.83201,530.68504 -0.424,0.178 -0.284,-0.046 -0.38,0.575 -0.691,0.855 -0.196,-0.291 0.025,-0.412 0.234,-0.618 0.752,-0.847 0.36,-0.268 0.479,0.379 z m 1.351,-6.147 3.675,2.17 3.615,2.11 1.463,2.38 -1.132,0.167 -0.885,-0.303 -1.134,0.403 -0.73,1.057 -3.147,-1.216 -1.126,-0.722 -0.876,-1.784 -0.428,0.942 -0.947,-0.661 -2.151,0.393 -1.548,-0.312 -1.181,-1.315 -3.172,0.915 -1.597,-1.557 2.972,-1.528 2.524,-0.622 3.653,0.172 1.487,1.085 0.897,-0.287 -1.605,-1.265 -0.767,-0.896 z m 2.499,-0.95 -0.385,0.382 -0.489,-0.668 -0.239,-0.776 -0.389,-0.472 0.766,-0.213 0.716,0.539 z"
       id="VI.3617"
       inkscape:connector-curvature="0"
       style="fill:#cee3f5;stroke:#6e6e6e;stroke-width:0.40000001">
      <namespace:desc>
        <namespace:labelrank>20</namespace:labelrank>
        <namespace:hasc>VI.ST</namespace:hasc>
        <namespace:alt-name>NULL</namespace:alt-name>
        <namespace:woe-id>24549909</namespace:woe-id>
        <namespace:subregion>NULL</namespace:subregion>
        <namespace:fips>010</namespace:fips>
        <namespace:postal-code>NULL</namespace:postal-code>
        <namespace:name>Saint Thomas</namespace:name>
        <namespace:country>United States Virgin Islands</namespace:country>
        <namespace:type-en>NULL</namespace:type-en>
        <namespace:region>NULL</namespace:region>
        <namespace:longitude>-64.9263</namespace:longitude>
        <namespace:woe-name>Saint Thomas Island</namespace:woe-name>
        <namespace:latitude>18.3543</namespace:latitude>
        <namespace:woe-label>Saint Thomas Island, VI, US Virgin Islands</namespace:woe-label>
        <namespace:type>NULL</namespace:type>
        <namespace:hc-middle-x>0.68</namespace:hc-middle-x>
        <namespace:hc-middle-y>0.65</namespace:hc-middle-y>
        <namespace:hc-key>vi-3617</namespace:hc-key>
        <namespace:hc-a2>ST</namespace:hc-a2>
      </namespace:desc>
    </path>
    <path
       d="m 665.47601,528.29104 0.406,1.07 -1.373,0.224 -2.671,-0.915 -0.718,0.289 1.058,1.432 -0.679,2.42 -3.199,-1.748 -5.007,0.425 -1.475,-1.376 1.51,-2.233 1.675,-0.696 1.792,-0.515 -0.409,-0.774 0.898,-0.465 3.326,0.92 1.605,0.312 1.483,0.666 z"
       id="VI.6398"
       inkscape:connector-curvature="0"
       style="fill:#cee3f5;stroke:#6e6e6e;stroke-width:0.40000001">
      <namespace:desc>
        <namespace:labelrank>20</namespace:labelrank>
        <namespace:hasc>VI.SJ</namespace:hasc>
        <namespace:alt-name>NULL</namespace:alt-name>
        <namespace:woe-id>24549908</namespace:woe-id>
        <namespace:subregion>NULL</namespace:subregion>
        <namespace:fips>020</namespace:fips>
        <namespace:postal-code>NULL</namespace:postal-code>
        <namespace:name>Saint John</namespace:name>
        <namespace:country>United States Virgin Islands</namespace:country>
        <namespace:type-en>NULL</namespace:type-en>
        <namespace:region>NULL</namespace:region>
        <namespace:longitude>-64.7461</namespace:longitude>
        <namespace:woe-name>Saint John Island</namespace:woe-name>
        <namespace:latitude>18.3422</namespace:latitude>
        <namespace:woe-label>Saint John Island, VI, US Virgin Islands</namespace:woe-label>
        <namespace:type>NULL</namespace:type>
        <namespace:hc-middle-x>0.52</namespace:hc-middle-x>
        <namespace:hc-middle-y>0.43</namespace:hc-middle-y>
        <namespace:hc-key>vi-6398</namespace:hc-key>
        <namespace:hc-a2>SJ</namespace:hc-a2>
      </namespace:desc>
    </path>
    <g
       id="g3618">
      <namespace:desc>
        <namespace:name>United States Virgin Islands</namespace:name>
        <namespace:labelrank>6</namespace:labelrank>
        <namespace:country-abbrev>V.I. (U.S.)</namespace:country-abbrev>
        <namespace:subregion>Caribbean</namespace:subregion>
        <namespace:region-wb>Latin America &amp; Caribbean</namespace:region-wb>
        <namespace:iso-a3>VIR</namespace:iso-a3>
        <namespace:iso-a2>VI</namespace:iso-a2>
        <namespace:woe-id>23424985</namespace:woe-id>
        <namespace:continent>North America</namespace:continent>
        <namespace:hc-key>vi</namespace:hc-key>
        <namespace:hc-a2>US</namespace:hc-a2>
      </namespace:desc>
    </g>
    <path
       d="m 649.15701,541.98904 1.561,0.563 0.788,0.424 0.683,0.631 1.711,-1.389 2.674,-0.554 2.909,0.183 2.399,0.784 -0.004,0.529 -1.918,0.189 -1.601,0.507 -3.141,1.412 -1.618,0.487 -15.316,2.035 -1.402,0.479 0.558,-1.323 0.102,-1.125 -0.047,-3.168 0.236,-0.976 0.614,-0.612 2.796,0.883 1.585,-0.704 1.642,-1.026 1.775,-0.377 0.182,0.204 z"
       id="VI.6399"
       inkscape:connector-curvature="0"
       style="fill:#cee3f5;stroke:#6e6e6e;stroke-width:0.40000001">
      <namespace:desc>
        <namespace:labelrank>20</namespace:labelrank>
        <namespace:hasc>VI.SC</namespace:hasc>
        <namespace:alt-name>NULL</namespace:alt-name>
        <namespace:woe-id>24549907</namespace:woe-id>
        <namespace:subregion>NULL</namespace:subregion>
        <namespace:fips>030</namespace:fips>
        <namespace:postal-code>NULL</namespace:postal-code>
        <namespace:name>Saint Croix</namespace:name>
        <namespace:country>United States Virgin Islands</namespace:country>
        <namespace:type-en>NULL</namespace:type-en>
        <namespace:region>NULL</namespace:region>
        <namespace:longitude>-64.77979999999999</namespace:longitude>
        <namespace:woe-name>Saint Croix Island</namespace:woe-name>
        <namespace:latitude>17.735</namespace:latitude>
        <namespace:woe-label>Saint Croix Island, VI, US Virgin Islands</namespace:woe-label>
        <namespace:type>NULL</namespace:type>
        <namespace:hc-middle-x>0.36</namespace:hc-middle-x>
        <namespace:hc-middle-y>0.46</namespace:hc-middle-y>
        <namespace:hc-key>vi-6399</namespace:hc-key>
        <namespace:hc-a2>SC</namespace:hc-a2>
      </namespace:desc>
    </path>
  </g>
</svg>
